# xmcd
#
# Track frame offsets: 
#        150
#        12561
#        28472
#        45549
#        69936
#        82558
#        105621
#        123333
#        139160
#        154904
#        169268
#        179176
#        199062
#        223591
#        243083
#        260614
#        274719
#        288949
#        303017
#        320011
#
# Disc length: 4491 seconds
#
# Revision: 1
# Processed by: cddbd v1.5.2PL0 Copyright (c) Steve Scherf et al.
# Submitted via: ExactAudioCopyFreeDBPlugin 1.0
#
DISCID=20118914
DTITLE=Legrand, Michel - La Musique Au Pluriel - Music In The Plural -
DTITLE=Disque 1 - Vocal
DYEAR=2012
DGENRE=Jazz
TTITLE0=Quand Ça Balance
TTITLE1=Les Moulins De Mon Coeur
TTITLE2=Legrand, Michel - Mouskouri, Nana - Quand On S'Aime
TTITLE3=Attendre
TTITLE4=Elle A... Elle A Pas
TTITLE5=Rupture
TTITLE6=Le Soleil La Mer Et Les Bateaux
TTITLE7=Le Cinéma
TTITLE8=Trombonne Guitare Et Compagnie
TTITLE9=Legrand, Michel - Fygi, Laura - Et Si Demain
TTITLE10=Les Enfants Qui Pleurent
TTITLE11=La Partie De Tennis
TTITLE12=Édith
TTITLE13=Un Parfum De Fin Du Monde
TTITLE14=Legrand, Michel - Guidoni, Jean - Duo Du Haut
TTITLE15=Les Musiciens
TTITLE16=Comme Elle Est Longue À Mourrir Ma Jeunesse
TTITLE17=Eugenie
TTITLE18=Mon Dernier Concert
TTITLE19=Legrand, Michel - Mouskouri, Nana - Vivre Quand On S'Aime [Bo
TTITLE19=nus]
EXTD=
EXTT0=
EXTT1=
EXTT2=
EXTT3=
EXTT4=
EXTT5=
EXTT6=
EXTT7=
EXTT8=
EXTT9=
EXTT10=
EXTT11=
EXTT12=
EXTT13=
EXTT14=
EXTT15=
EXTT16=
EXTT17=
EXTT18=
EXTT19=
PLAYORDER=
